<?xml version="1.0" standalone="no"?><!DOCTYPE svg PUBLIC "-//W3C//DTD SVG 1.1//EN" "http://www.w3.org/Graphics/SVG/1.1/DTD/svg11.dtd"><svg t="1613270916643" class="icon" viewBox="0 0 1024 1024" version="1.1" xmlns="http://www.w3.org/2000/svg" p-id="6369" xmlns:xlink="http://www.w3.org/1999/xlink" width="200" height="200"><defs><style type="text/css"></style></defs><path d="M128 0h768a128 128 0 0 1 128 128v768a128 128 0 0 1-128 128H128a128 128 0 0 1-128-128V128a128 128 0 0 1 128-128z m0 85.333333a42.666667 42.666667 0 0 0-42.666667 42.666667v768a42.666667 42.666667 0 0 0 42.666667 42.666667h768a42.666667 42.666667 0 0 0 42.666667-42.666667V128a42.666667 42.666667 0 0 0-42.666667-42.666667H128z" fill="#08af63" p-id="6370"></path><path d="M585.429333 810.666667c-23.04 0-42.453333-17.152-45.226666-40.021334l-8.917334-72.106666H325.461333l-47.146666 89.344A42.666667 42.666667 0 0 1 240.64 810.666667h-16.896a25.258667 25.258667 0 0 1-22.186667-37.376l263.765334-481.493334a53.76 53.76 0 0 1 47.189333-27.946666c18.346667 0 33.877333 13.397333 36.565333 31.530666l70.784 475.392a34.773333 34.773333 0 0 1-34.389333 39.893334z m-61.056-177.408l-33.024-251.136-132.864 251.136h165.888zM683.861333 285.226667L648.533333 462.506667c-0.682667 4.096-1.365333 5.802667-1.365333 9.216 0 7.509333 4.096 12.288 16.042667 12.288h15.701333l-5.802667 27.989333h-20.48c-19.797333 0-38.570667-10.581333-38.570666-35.157333 0-5.12 0.341333-9.557333 1.365333-14.336l35.328-177.28a20.181333 20.181333 0 0 1 19.797333-16.256 13.568 13.568 0 0 1 13.312 16.213333z m181.333334 69.461333l-30.976 155.946667c-11.264 55.978667-47.786667 73.386667-82.261334 73.386666-24.576 0-41.642667-7.509333-55.296-23.552l23.210667-20.138666c6.485333 7.850667 15.36 15.701333 32.426667 15.701333 23.552 0 42.666667-15.018667 49.152-45.738667l4.437333-21.845333c-9.898667 11.946667-22.869333 19.456-43.008 19.456-28.330667 0-48.469333-17.749333-48.469333-50.858667 0-8.533333 1.365333-20.138667 4.096-34.816 5.802667-31.744 12.970667-53.248 27.306666-67.584 13.312-13.312 29.354667-17.749333 45.397334-17.749333 17.408 0 32.426667 5.802667 40.96 21.845333l0.853333-4.096a19.712 19.712 0 0 1 19.285333-15.701333 13.184 13.184 0 0 1 12.928 15.744z m-42.922667 40.576c0-18.773333-8.874667-29.013333-25.941333-29.013333-27.648 0-38.570667 23.210667-44.714667 56.32-2.048 10.922667-3.413333 20.138667-3.413333 26.965333 0 16.384 5.802667 29.013333 25.6 29.013333 27.306667 0 38.912-23.552 45.056-56.32 2.048-10.922667 3.413333-20.138667 3.413333-26.965333z" fill="#08af63" p-id="6371"></path></svg>